<?xml version="1.0" encoding="UTF-8"?>
<svg xmlns="http://www.w3.org/2000/svg" width="256" height="256" viewBox="0 0 64 64" fill="none">
  <defs>
    <style>
      :root { --stroke: #111827; --node: #2563eb; --bg: transparent; }
      .w { stroke: var(--stroke); stroke-width: 2.5; stroke-linecap: round; stroke-linejoin: round; }
      .n { fill: var(--node); }
    </style>
  </defs>
  <rect width="64" height="64" fill="var(--bg)"/>
  
  <!-- Connections -->
  <g class="w">
    <!-- left to mid -->
    <line x1="14" y1="16" x2="32" y2="12"/>
    <line x1="14" y1="16" x2="32" y2="24"/>
    <line x1="14" y1="32" x2="32" y2="12"/>
    <line x1="14" y1="32" x2="32" y2="24"/>
    <line x1="14" y1="48" x2="32" y2="24"/>
    <line x1="14" y1="48" x2="32" y2="36"/>
    <line x1="14" y1="32" x2="32" y2="36"/>
    <line x1="14" y1="16" x2="32" y2="36"/>

    <!-- mid to right -->
    <line x1="32" y1="12" x2="50" y2="18"/>
    <line x1="32" y1="12" x2="50" y2="32"/>
    <line x1="32" y1="24" x2="50" y2="18"/>
    <line x1="32" y1="24" x2="50" y2="32"/>
    <line x1="32" y1="36" x2="50" y2="32"/>
    <line x1="32" y1="36" x2="50" y2="46"/>
  </g>

  <!-- Nodes -->
  <g>
    <circle class="n" cx="14" cy="16" r="3.5"/>
    <circle class="n" cx="14" cy="32" r="3.5"/>
    <circle class="n" cx="14" cy="48" r="3.5"/>

    <circle class="n" cx="32" cy="12" r="3.5"/>
    <circle class="n" cx="32" cy="24" r="3.5"/>
    <circle class="n" cx="32" cy="36" r="3.5"/>

    <circle class="n" cx="50" cy="18" r="3.5"/>
    <circle class="n" cx="50" cy="32" r="3.5"/>
    <circle class="n" cx="50" cy="46" r="3.5"/>
  </g>

  <!-- Outer soft ring for favicon legibility -->
  <circle cx="32" cy="32" r="29" class="w" opacity="0.12"/>
</svg>