<svg width="92" height="60" viewBox="0 0 92 60" fill="none" xmlns="http://www.w3.org/2000/svg">
<g clip-path="url(#clip0_115_81)">
<path d="M2.26021 43.0207C2.65353 43.3697 3.11332 43.6411 3.61743 43.8128C4.12154 43.9846 4.68104 44.0732 5.28486 44.0732C5.88868 44.0732 6.44265 43.9901 6.9523 43.8128C7.46195 43.6356 7.9162 43.3697 8.30951 43.0207C8.70837 42.6661 9.01305 42.2507 9.21248 41.7742C9.41191 41.2978 9.51162 40.7716 9.51162 40.2065C9.51162 39.6359 9.41191 39.1097 9.21248 38.6388C9.01305 38.1624 8.70837 37.7469 8.30951 37.3924C7.9162 37.0434 7.45641 36.7719 6.9523 36.6002C6.44265 36.4229 5.88868 36.3398 5.28486 36.3398C4.68104 36.3398 4.12707 36.4229 3.61743 36.6002C3.11332 36.7775 2.65353 37.0434 2.26021 37.3924C1.86136 37.7469 1.55667 38.1624 1.35725 38.6388C1.15782 39.1152 1.05811 39.6415 1.05811 40.2065C1.05811 40.7716 1.15782 41.3034 1.35725 41.7742C1.55667 42.2507 1.86136 42.6661 2.26021 43.0207ZM3.66728 39.4144C3.75592 39.1872 3.88887 38.9933 4.06614 38.8216C4.23233 38.6554 4.4096 38.5391 4.60902 38.456C4.80845 38.3784 5.03004 38.3341 5.27932 38.3341C5.53415 38.3341 5.75573 38.3784 5.95516 38.4615C6.16013 38.5446 6.34294 38.6665 6.52021 38.8382C6.69194 39.0044 6.81381 39.1928 6.8969 39.4199C6.98 39.6415 7.02431 39.9018 7.02431 40.2065C7.02431 40.5112 6.98 40.766 6.8969 40.9932C6.81381 41.2147 6.6864 41.4086 6.52021 41.5748C6.34294 41.7465 6.16013 41.874 5.95516 41.9515C5.75019 42.0346 5.52861 42.0789 5.27932 42.0789C5.03004 42.0789 4.80291 42.0346 4.60902 41.9571C4.4096 41.8795 4.23233 41.7576 4.06614 41.5914C3.88887 41.4197 3.75592 41.2203 3.66728 40.9987C3.57865 40.7716 3.53433 40.5112 3.53433 40.2121C3.53433 39.9129 3.57865 39.6526 3.66728 39.4254V39.4144Z" fill="black"/>
<path d="M10.891 42.2567V43.0489C10.8743 43.3425 10.6417 44.5003 7.93833 44.5003H0V46.5001H4.11042V50.1009H6.58665V46.5001H7.22371C7.24033 46.5001 7.26249 46.5001 7.27911 46.5001H8.0325C9.94922 46.5001 10.7746 45.6525 10.8854 45.5251C10.8854 45.5196 10.8965 45.514 10.902 45.5085V50.1009H13.3616V36.4512H10.8854V42.2567H10.891Z" fill="black"/>
<path d="M25.1721 42.8882C25.1721 43.1375 25.1444 43.3536 25.0945 43.5198C25.0447 43.6915 24.9782 43.8245 24.8951 43.9242V43.9352L24.884 43.9408C24.8009 44.0571 24.6735 44.1734 24.4907 44.2787C24.3079 44.3895 24.0697 44.4948 23.7705 44.5834C22.9784 44.8161 21.7874 44.9435 20.2252 44.9435C19.8485 44.9435 19.505 44.9324 19.2003 44.9102C18.951 44.8936 18.7516 44.8604 18.5965 44.8216C18.4414 44.7773 18.3417 44.7274 18.2918 44.6831C18.2364 44.6388 18.1977 44.5834 18.1644 44.4947C18.1312 44.4061 18.109 44.2787 18.109 44.1125V36.8279H15.6494V44.2288C15.6494 44.7883 15.7713 45.2925 16.0317 45.7024C16.292 46.1179 16.6853 46.4281 17.1728 46.6275C17.483 46.7549 17.8542 46.838 18.3084 46.8934C18.7627 46.9488 19.2945 46.9765 19.9149 46.9765C21.7818 46.9765 23.2886 46.7494 24.4575 46.2674C24.7234 46.1511 24.9671 46.0237 25.1776 45.8797V50.1009H27.6372V36.4512H25.1776V42.8882H25.1721Z" fill="black"/>
<path d="M43.9462 48.0508H29.0667V50.0672H43.9462V48.0508Z" fill="black"/>
<path d="M75.4058 48.0508H60.7146V50.0672H75.4058V48.0508Z" fill="black"/>
<path d="M91.3157 48.0508H76.6245V50.0672H91.3157V48.0508Z" fill="black"/>
<path d="M45.8186 44.7383C45.9072 44.8546 46.0291 44.9377 46.1565 44.9876C46.2895 45.0374 46.4224 45.0596 46.5609 45.0596C46.6773 45.0596 46.788 45.043 46.8988 45.0097H46.9099C48.1342 44.622 49.2754 44.068 50.3279 43.3368C51.1644 42.7606 51.8181 42.1513 52.2834 41.5031C52.7487 42.1513 53.4135 42.7606 54.2666 43.3478C55.3025 44.0624 56.4381 44.6053 57.6569 44.9931C57.7676 45.0374 57.8895 45.0596 58.0058 45.0596C58.1222 45.0596 58.2496 45.043 58.3715 45.0042C58.4601 44.9765 58.5432 44.9322 58.6208 44.8712C58.7371 44.7826 58.8202 44.6607 58.87 44.5278C58.9199 44.4004 58.9421 44.2619 58.9421 44.1234C58.9421 43.935 58.8922 43.7467 58.7814 43.5916C58.6761 43.4365 58.521 43.3201 58.3493 43.2426C56.5655 42.4338 55.3247 41.5585 54.6156 40.6722C54.261 40.229 53.9951 39.7304 53.8123 39.1709C53.6351 38.6114 53.5409 37.9854 53.5409 37.293V36.6504H51.0314V37.293C51.0314 37.9854 50.9372 38.6114 50.76 39.1709C50.5827 39.7304 50.3113 40.229 49.9567 40.6777C49.2421 41.5696 48.0012 42.4449 46.223 43.2537C46.0568 43.3312 45.9017 43.442 45.7909 43.5916C45.6801 43.7467 45.6247 43.935 45.6303 44.1178C45.6303 44.2397 45.6469 44.3616 45.6857 44.4779C45.7134 44.5666 45.7577 44.6496 45.8186 44.7272V44.7383Z" fill="black"/>
<path d="M53.419 44.251H50.9428V48.0844H44.7605V50.1009H52.4939H58.8035H59.8228V48.0678H53.419V44.251Z" fill="black"/>
<path d="M73.8604 43.5309H71.8052V38.7391H73.8604V36.7227H62.1772V38.7391H64.2325V43.5309H62.1772V45.5307H73.8604V43.5309ZM69.3456 43.5309H66.6921V38.7391H69.3456V43.5309Z" fill="black"/>
<path d="M42.1456 44.6887L41.7745 42.8384C40.7164 43.0766 38.5615 43.3591 36.9771 43.3591H34.512C34.3347 43.3591 34.1907 43.337 34.0799 43.3037C33.9137 43.2484 33.8251 43.1763 33.7586 43.0766C33.6921 42.9714 33.6422 42.8052 33.6422 42.5614V38.7391H41.5584V36.7393H31.166V42.4783C31.166 42.9548 31.2214 43.3813 31.3488 43.7525C31.4762 44.1236 31.6757 44.4449 31.9526 44.6831C32.2186 44.9213 32.5509 45.0931 32.9332 45.2038C33.3154 45.3146 33.742 45.3645 34.2239 45.3645H36.8719C37.7305 45.3645 38.5171 45.3257 39.2262 45.2426C40.0849 45.1429 41.5307 44.8715 42.1456 44.6887Z" fill="black"/>
<path d="M89.6095 44.9982L89.2383 43.148C88.1802 43.3862 86.0309 43.6742 84.441 43.6742H81.9758C81.7986 43.6742 81.6545 43.6521 81.5437 43.6189C81.3775 43.5635 81.2945 43.497 81.2224 43.3917C81.156 43.2865 81.1061 43.1203 81.1061 42.8765V42.2284H88.8395V40.2452H81.1061V38.744H89.0223V36.7441H78.6299V42.7934C78.6299 43.2699 78.6908 43.6964 78.8182 44.0676C78.9456 44.4387 79.1451 44.76 79.422 44.9982C79.688 45.2364 80.0203 45.4082 80.4026 45.519C80.7848 45.6297 81.2114 45.6796 81.6933 45.6796H84.3413C85.1999 45.6796 85.9865 45.6408 86.6956 45.5577C87.5543 45.458 89.0001 45.1866 89.615 45.0038L89.6095 44.9982Z" fill="black"/>
<path d="M20.1867 57.1911C20.2199 57.374 20.2532 57.5789 20.2809 57.8061C20.3086 58.0332 20.3363 58.3102 20.364 58.637C20.3861 58.8918 20.4083 59.0691 20.4138 59.1688H20.4304C20.4304 59.1688 20.4415 59.0802 20.4526 58.9694C20.4637 58.8586 20.4692 58.7866 20.4692 58.7699C20.5135 58.2049 20.5634 57.7285 20.6243 57.3518L21.0398 54.3271H22.1145L21.0841 59.8779H19.8432L19.4278 57.6897C19.3779 57.4294 19.328 57.036 19.2726 56.5042C19.2449 56.2106 19.2228 56.0167 19.2062 55.9226H19.1896C19.1729 56.0223 19.1508 56.2162 19.1231 56.5042C19.0677 57.0305 19.0178 57.4238 18.968 57.6897L18.5968 59.8779H17.3559L16.2979 54.3271H17.3725L17.8379 57.3518C17.8988 57.734 17.9487 58.2049 17.993 58.7699C18.0041 58.8586 18.0151 58.9915 18.0207 59.1688H18.0373C18.0595 59.0137 18.0816 58.7977 18.1038 58.5262C18.1703 57.8947 18.2257 57.4515 18.2755 57.1967L18.7796 54.3271H19.6383L20.1922 57.1967L20.1867 57.1911Z" fill="black"/>
<path d="M25.7483 59.8671V54.3164H26.7842V59.8671H25.7483Z" fill="black"/>
<path d="M33.2381 54.3223H34.274V59.873H33.1938L32.385 57.8953C32.2521 57.574 32.1302 57.2417 32.0138 56.8927C31.8975 56.5437 31.7756 56.1448 31.6482 55.6906H31.6316C31.6538 56.0229 31.6759 56.3055 31.6925 56.5437C31.7092 56.7819 31.7258 57.0256 31.7424 57.2749C31.7646 57.5962 31.7756 57.8843 31.7812 58.1446C31.7867 58.405 31.7923 58.6321 31.7923 58.8315V59.873H30.7563V54.3223H31.831L32.6398 56.3442C32.7783 56.6766 32.9057 57.0145 33.0221 57.3635C33.1384 57.7125 33.2547 58.1059 33.3821 58.549H33.3988C33.3544 57.9507 33.3212 57.4245 33.2935 56.9758C33.2603 56.3553 33.2437 55.8346 33.2437 55.4136V54.3278L33.2381 54.3223Z" fill="black"/>
<path d="M38.2458 59.8671V54.3164H39.2818V59.8671H38.2458Z" fill="black"/>
<path d="M43.2812 59.8671V54.3164H45.4417C45.5137 54.3164 45.5968 54.3275 45.6855 54.3441C45.7741 54.3607 45.8627 54.394 45.9514 54.4383C46.184 54.5491 46.3724 54.7153 46.5109 54.9479C46.6217 55.1307 46.7048 55.3745 46.7491 55.6792C46.7934 55.9838 46.8156 56.3772 46.8156 56.8646C46.8156 57.2358 46.81 57.546 46.7989 57.7953C46.7879 58.0501 46.7546 58.2994 46.7048 58.5542C46.6549 58.8091 46.5663 59.0362 46.4499 59.2412C46.3336 59.4461 46.173 59.6012 45.968 59.7231C45.8627 59.784 45.7519 59.8228 45.6301 59.8394C45.5082 59.8616 45.3642 59.8671 45.2035 59.8671H43.2868H43.2812ZM44.7659 59.0528C44.9985 59.0528 45.1814 59.0196 45.3088 58.9476C45.4417 58.8811 45.5359 58.7703 45.6024 58.6152C45.6688 58.4601 45.7076 58.2606 45.7242 58.0114C45.7409 57.7621 45.7519 57.4131 45.7519 56.9588C45.7519 56.2774 45.7021 55.801 45.6024 55.5351C45.5027 55.2637 45.3032 55.1307 44.9985 55.1307H44.3172V59.0528H44.7659Z" fill="black"/>
<path d="M52.8484 56.0055C52.8484 55.6842 52.8096 55.4404 52.7321 55.2742C52.6545 55.1081 52.4883 55.025 52.2446 55.025C52.0618 55.025 51.9233 55.0637 51.8236 55.1468C51.7238 55.2299 51.674 55.3573 51.674 55.5402C51.674 55.723 51.7183 55.8725 51.8125 55.9722C51.9066 56.072 52.0507 56.1883 52.2556 56.3212H52.2723C52.3941 56.4099 52.5105 56.4819 52.6102 56.5484C52.7154 56.6148 52.8207 56.6924 52.9259 56.7644C53.0367 56.842 53.142 56.9195 53.2528 57.0082C53.3636 57.0913 53.4522 57.1688 53.5242 57.2353C53.696 57.4015 53.8178 57.5787 53.8843 57.756C53.9508 57.9333 53.9896 58.1493 53.9896 58.3931C53.9896 58.9083 53.8344 59.3016 53.5242 59.5786C53.214 59.8555 52.7985 59.994 52.2833 59.994C51.9842 59.994 51.7238 59.9553 51.5078 59.8722C51.2917 59.7891 51.1145 59.6783 50.9815 59.5287C50.8486 59.3791 50.7489 59.2074 50.6879 58.9969C50.627 58.7919 50.5938 58.5593 50.5938 58.3044V57.9H51.6297V58.2269C51.6297 58.5316 51.6795 58.7642 51.7792 58.9249C51.8789 59.08 52.0451 59.1631 52.2778 59.1631C52.7044 59.1631 52.9204 58.947 52.9204 58.5149C52.9204 58.3543 52.8872 58.2158 52.8151 58.0995C52.7487 57.9831 52.6434 57.8723 52.5049 57.7837C52.3886 57.6895 52.2003 57.5566 51.9399 57.3904C51.674 57.2187 51.4579 57.0691 51.3028 56.9417C51.1422 56.8143 50.9981 56.6702 50.8707 56.5041C50.6935 56.2437 50.6048 55.9612 50.6048 55.6509C50.6048 55.1745 50.7433 54.8089 51.0092 54.5596C51.2751 54.3103 51.6851 54.1885 52.2279 54.1885C52.6046 54.1885 52.9038 54.2494 53.1254 54.3713C53.347 54.4932 53.5131 54.6427 53.6129 54.8255C53.7126 55.0083 53.7791 55.1856 53.8012 55.3629C53.8289 55.5402 53.84 55.734 53.84 55.9445V56.0055H52.8428H52.8484Z" fill="black"/>
<path d="M57.751 56.6481C57.7676 56.216 57.7953 55.867 57.8341 55.5955C57.8728 55.3241 57.9504 55.0804 58.0667 54.8643C58.1831 54.6483 58.3603 54.4821 58.6041 54.3657C58.8478 54.2494 59.1636 54.1885 59.568 54.1885C59.9724 54.1885 60.2881 54.2494 60.5319 54.3657C60.7756 54.4821 60.9529 54.6483 61.0692 54.8643C61.1856 55.0804 61.2631 55.3241 61.3019 55.5955C61.3407 55.867 61.3684 56.2215 61.385 56.6481V57.4403C61.385 57.8779 61.3684 58.2435 61.3351 58.5316C61.3019 58.8196 61.2243 59.0745 61.108 59.296C60.9917 59.5176 60.8089 59.6894 60.5596 59.8168C60.3158 59.9386 59.9835 59.9996 59.5735 59.9996C59.1636 59.9996 58.8368 59.9386 58.5875 59.8168C58.3437 59.6949 58.1609 59.5232 58.039 59.296C57.9227 59.0745 57.8452 58.8196 57.8119 58.5316C57.7787 58.2435 57.7621 57.8779 57.7621 57.4403V56.6481H57.751ZM58.8146 57.9554C58.8146 58.1106 58.8201 58.249 58.8367 58.3765C58.8534 58.5039 58.8811 58.6313 58.9309 58.7476C58.9808 58.8695 59.0583 58.9692 59.158 59.0412C59.2578 59.1188 59.3963 59.1575 59.5624 59.1575C59.7286 59.1575 59.8727 59.1188 59.9779 59.0412C60.0832 58.9637 60.1607 58.8584 60.205 58.7365C60.2494 58.6091 60.2771 58.4817 60.2881 58.3488C60.2992 58.2158 60.3048 58.0552 60.3048 57.8668V56.4487C60.3048 56.2548 60.2992 56.0886 60.2881 55.939C60.2771 55.7894 60.2438 55.6454 60.1995 55.5069C60.1552 55.3684 60.0776 55.2521 59.9724 55.1579C59.8671 55.0693 59.7286 55.0194 59.5569 55.0194C59.3852 55.0194 59.2578 55.0582 59.1525 55.1358C59.0528 55.2133 58.9752 55.3186 58.9254 55.446C58.8755 55.5734 58.8423 55.7174 58.8312 55.8725C58.8146 56.0276 58.8091 56.2104 58.8091 56.4154V57.9554H58.8146Z" fill="black"/>
<path d="M65.3181 59.8671V54.3164H68.2541V55.1307H66.354V56.5378H68.1378V57.3521H66.354V59.8671H65.3181Z" fill="black"/>
<path d="M71.5669 54.3223H75.0236V55.1366H73.816V59.873H72.7801V55.1366H71.5669V54.3223Z" fill="black"/>
<path d="M43.3533 2.93602L38.2846 15.8766L32.0691 0H29.759L38.3178 21.8484L43.3589 8.84129L51.8789 30.5844H54.1834L43.3533 2.93602Z" fill="black"/>
<path d="M57.6345 21.8041L64.6422 3.91654H62.3377L62.3155 3.96639L57.6456 15.8988L51.419 0H51.3636H49.1145L57.6345 21.8041Z" fill="black"/>
<path d="M38.2347 27.7647C38.063 28.0971 37.6475 28.6289 36.6947 28.6289H35.1215C34.213 28.6289 33.8086 27.9254 33.6812 27.6318L23.6156 1.9555H25.9146L36.0078 27.726L37.1601 24.7789L27.4601 0H20.5466L31.8586 28.8838C32.0636 29.3491 32.7837 30.59 34.5897 30.59H37.3429C39.182 30.59 39.8856 29.3712 40.085 28.9281L44.5001 17.6604L43.3479 14.7189L38.2347 27.7758V27.7647Z" fill="black"/>
<path d="M68.88 0H61.2685C59.5955 0 58.892 1.02484 58.6371 1.55664L56.4656 7.10738L57.6178 10.0489L60.3821 2.99141L60.4375 2.85292C60.5705 2.57594 60.9859 1.96104 62.1216 1.96104H67.7L57.64 27.6429L47.5911 1.99428C46.9429 0.332379 45.6743 0.0387776 45.0761 0H41.852C40.1458 0 39.4644 1.17441 39.265 1.61758L37.1045 7.12954L38.2567 10.0711L40.9878 3.09667C41.3756 2.11061 42.1899 1.97212 42.5167 1.9555H44.0955C44.367 1.96104 45.3087 2.06075 45.7187 3.09667L56.4822 30.5789H57.4295C57.9004 30.5401 58.903 30.2742 59.5013 28.7563L70.769 0H68.88Z" fill="black"/>
</g>
<defs>
<clipPath id="clip0_115_81">
<rect width="91.3157" height="60" fill="black"/>
</clipPath>
</defs>
</svg>
